<svg width="29" height="36" viewBox="0 0 29 36" fill="none" xmlns="http://www.w3.org/2000/svg">
<path d="M11.9495 0.61517C7.47847 1.27821 3.79691 3.76058 2.4423 7.01111C2.01016 8.03802 1.89381 8.66872 1.89381 9.90586C1.90212 10.8196 1.93536 11.1592 2.07664 11.6524C2.36751 12.6227 2.57527 13.116 3.00742 13.8113L3.40632 14.4582L2.95755 15.0081C-0.591032 19.423 -0.981625 25.6329 1.97691 30.5249C3.08221 32.3604 4.88559 34.1635 6.64742 35.2147L7.17098 35.522L14.3346 35.4654L21.5066 35.4007L21.8473 35.2147C23.0357 34.5436 24.7144 33.0477 25.6535 31.8348C27.0663 29.9912 27.9888 27.8404 28.3794 25.5116C28.5123 24.6788 28.5123 22.2126 28.3711 21.4283C27.9472 19.0106 27.0414 16.9406 25.612 15.1051C25.3377 14.7574 25.1217 14.4663 25.1217 14.442C25.1217 14.4259 25.2712 14.1752 25.4458 13.8922C25.853 13.2453 26.2186 12.4125 26.4181 11.6848C26.6425 10.8762 26.6425 8.8547 26.4181 8.04611C25.6203 5.17562 23.2269 2.78219 19.8445 1.46419C18.8971 1.09224 17.2765 0.69603 16.2294 0.566654C15.2571 0.453453 12.8554 0.477711 11.9495 0.61517ZM17.0106 1.93317C21.4484 2.79836 24.6978 5.51522 25.2962 8.86278C25.4291 9.61477 25.346 10.8923 25.1217 11.6039C24.8973 12.2993 24.4818 13.116 23.9914 13.8113C23.792 14.0944 23.6258 14.4178 23.6258 14.5229C23.6258 14.628 23.8003 14.9029 24.0496 15.1779C26.1272 17.4823 27.2242 20.369 27.2242 23.4902C27.2159 27.0399 25.853 30.1529 23.2269 32.5949C22.7781 33.0153 22.1382 33.5409 21.7975 33.7673L21.1742 34.1878L14.3014 34.2121L7.43691 34.2444L6.90504 33.9048C4.977 32.6515 3.24011 30.5815 2.27609 28.3821C1.06276 25.6006 0.938101 22.3743 1.92705 19.4796C2.45061 17.9756 3.14869 16.7465 4.21244 15.4528C4.64458 14.9353 4.84404 14.628 4.84404 14.4825C4.84404 14.3612 4.62796 13.965 4.34541 13.5526C3.34815 12.1052 2.94093 10.4961 3.18194 8.97598C3.43125 7.43966 4.12933 6.17826 5.41746 4.92495C7.09618 3.29969 9.43974 2.22426 12.1905 1.81997C13.3291 1.65017 15.8471 1.71485 17.0106 1.93317Z" fill="black"/>
<path d="M12.3233 3.35635C8.91603 3.91428 6.24836 5.80638 5.37576 8.28875C5.17631 8.84667 5.14307 9.06499 5.14307 9.86549C5.14307 10.666 5.17631 10.8843 5.37576 11.4422C5.50042 11.798 5.73311 12.2913 5.89101 12.5419C6.32316 13.2373 6.5143 13.2616 7.37028 12.7441C8.6501 11.9597 10.1211 11.3856 11.6502 11.0703C12.6807 10.8601 14.6586 10.7792 15.7805 10.9086C17.534 11.1107 19.4371 11.7414 20.9579 12.639C21.3901 12.8896 21.8306 13.0999 21.9386 13.0999C22.5702 13.0999 23.3763 11.2805 23.3763 9.86549C23.3763 6.72008 20.3679 4.02748 16.1046 3.35635C15.1988 3.2108 13.1959 3.2108 12.3233 3.35635ZM16.437 4.65009C17.8664 4.95736 19.1795 5.53954 20.1685 6.3077C21.4981 7.33461 22.2128 8.76581 22.0965 10.1485C22.0549 10.6983 21.8472 11.4422 21.7225 11.5231C21.6893 11.5393 21.2239 11.3452 20.692 11.0865C19.5867 10.5528 18.3318 10.1242 17.0603 9.84932C16.2874 9.68761 15.9633 9.66335 14.2348 9.67143C12.5311 9.67143 12.1737 9.69569 11.4341 9.84932C10.1543 10.1242 9.15704 10.4639 7.92708 11.046C6.68882 11.6363 6.7553 11.6444 6.53092 10.9167C6.24005 9.97061 6.42288 8.7173 6.988 7.77125C7.28718 7.26992 8.10992 6.43708 8.70827 6.0247C9.84681 5.24036 10.8441 4.88458 12.9882 4.49646C13.4286 4.4156 15.8719 4.5288 16.437 4.65009Z" fill="black"/>
<path d="M15.0827 15.0808C14.85 15.3719 14.85 15.6468 15.091 15.8813C15.2489 16.035 15.4068 16.0754 15.9802 16.1158C17.0938 16.1967 18.1576 16.5201 19.1133 17.07C19.7947 17.4743 20.8335 18.4526 21.2989 19.1561C21.9887 20.1669 22.4624 21.6142 22.4624 22.6816C22.4624 23.0535 22.4956 23.1667 22.6702 23.3284C22.9361 23.5953 23.2851 23.5953 23.5428 23.3284C23.7256 23.1425 23.7339 23.0939 23.684 22.3015C23.4513 18.388 20.1022 15.1213 16.0966 14.9029L15.2655 14.8544L15.0827 15.0808Z" fill="black"/>
</svg>
